<svg width="280" height="231" viewBox="0 0 280 231" fill="none" xmlns="http://www.w3.org/2000/svg">
<path fill-rule="evenodd" clip-rule="evenodd" d="M8.24798 220.933L8.04641 211.739H15.5602V202.983H268.839V211.739H274.845V220.968H279.446V230.199H0.695557V220.968H8.24798V220.933ZM28.0091 64.0368H15.5602L143.709 0.498657L271.857 64.0368H257.788V202.983H28.0091V64.0368Z" fill="#FFF1DF"/>
<path fill-rule="evenodd" clip-rule="evenodd" d="M274.846 220.927H8.24905L8.19336 218.388H274.846V220.927ZM268.84 211.685H15.5614V209.147H268.84V211.685ZM257.789 202.96H28.0103V200.421H257.789V202.96ZM257.789 66.7871L28.0103 67.1324V64.4603L257.789 64.1151V66.7871Z" fill="#FFBDB4"/>
<path fill-rule="evenodd" clip-rule="evenodd" d="M257.788 66.114L223.497 71.231V201.012H191.253V68.7782C185.254 69.5417 170.48 71.4373 156.703 73.3265V201.012H124.457V66.9874L89.9065 71.231V201.012H57.6619V67.4821L28.0098 71.231V65.6237C28.0098 65.6237 49.8188 66.3092 57.6619 66.8245V66.0752H89.9065V65.6237H127.946L126.791 66.0752H156.703V66.8664L191.253 66.1338V66.0752H223.497V65.6237L257.788 66.0718V66.114Z" fill="#FFBDB4"/>
<path d="M143.708 55.1425C154.97 55.1425 164.1 45.7023 164.1 34.0573C164.1 22.4123 154.97 12.9722 143.708 12.9722C132.446 12.9722 123.316 22.4123 123.316 34.0573C123.316 45.7023 132.446 55.1425 143.708 55.1425Z" fill="#FFCF84"/>
<path fill-rule="evenodd" clip-rule="evenodd" d="M143.708 17.6108C152.486 17.6108 159.614 24.9802 159.614 34.0573C159.614 43.1343 152.486 50.5037 143.708 50.5037C143.352 50.5037 143.062 50.803 143.062 51.1717C143.062 51.5404 143.352 51.8397 143.708 51.8397C153.2 51.8397 160.906 43.8717 160.906 34.0573C160.906 24.2428 153.2 16.2748 143.708 16.2748C143.352 16.2748 143.062 16.5741 143.062 16.9428C143.062 17.3115 143.352 17.6108 143.708 17.6108Z" fill="#FD9909"/>
<path fill-rule="evenodd" clip-rule="evenodd" d="M143.708 50.5037C134.928 50.5037 127.801 43.1343 127.801 34.0573C127.801 24.9802 134.928 17.6108 143.708 17.6108C144.064 17.6108 144.354 17.3115 144.354 16.9428C144.354 16.5741 144.064 16.2748 143.708 16.2748C134.215 16.2748 126.51 24.2428 126.51 34.0573C126.51 43.8717 134.215 51.8397 143.708 51.8397C144.064 51.8397 144.354 51.5404 144.354 51.1717C144.354 50.803 144.064 50.5037 143.708 50.5037Z" fill="#FD9909"/>
<path fill-rule="evenodd" clip-rule="evenodd" d="M146.164 54.9909L145.746 51.5171C145.702 51.1512 145.954 50.8173 146.308 50.7718C146.662 50.7263 146.984 50.9865 147.029 51.3524L147.442 54.7893C147.02 54.8701 146.594 54.9375 146.164 54.9909ZM149.977 54.1258L148.822 50.601C148.708 50.2518 148.889 49.8722 149.227 49.754C149.564 49.6356 149.931 49.8231 150.045 50.1722L151.194 53.6745C150.795 53.8378 150.389 53.9884 149.977 54.1258ZM132.468 51.6478L134.264 48.5941C134.448 48.279 134.846 48.1788 135.151 48.3704C135.456 48.562 135.553 48.9732 135.368 49.2883L133.567 52.3501C133.192 52.1277 132.825 51.8932 132.468 51.6478ZM160.487 46.0377L157.519 43.7668C157.233 43.5474 157.172 43.1288 157.384 42.8324C157.596 42.536 158.001 42.4735 158.287 42.6927L161.189 44.9135C160.967 45.2964 160.732 45.6714 160.487 46.0377ZM124.329 40.6294L127.816 39.0065C128.14 38.8552 128.524 39.0053 128.67 39.3415C128.816 39.6777 128.671 40.0735 128.346 40.2248L124.772 41.8883C124.612 41.4751 124.463 41.0555 124.329 40.6294ZM163.496 28.9431C163.599 29.3736 163.691 29.8091 163.768 30.2493L160.33 31.0877C159.984 31.1724 159.635 30.9497 159.554 30.591C159.471 30.2321 159.687 29.872 160.033 29.7873L163.496 28.9431ZM126.859 22.1839L129.931 24.262C130.23 24.4639 130.314 24.8781 130.118 25.1868C129.923 25.4953 129.523 25.582 129.224 25.3801L126.165 23.3105C126.384 22.9268 126.617 22.5511 126.859 22.1839ZM128.864 19.6065L131.363 21.5066C131.65 21.725 131.712 22.1436 131.5 22.4405C131.289 22.7374 130.883 22.8012 130.597 22.5827L128.006 20.6116C128.281 20.2673 128.568 19.9321 128.864 19.6065ZM155.495 16.8536C155.847 17.1117 156.19 17.381 156.525 17.6614L154.291 20.5738C154.069 20.8626 153.662 20.911 153.383 20.6819C153.104 20.4527 153.057 20.0321 153.278 19.7433L155.495 16.8536ZM152.035 14.8068C152.429 14.9897 152.817 15.1853 153.197 15.3923L151.622 18.4471C151.454 18.7724 151.062 18.8956 150.747 18.7222C150.433 18.5486 150.314 18.1437 150.482 17.8184L152.035 14.8068ZM139.136 13.5054L140.046 16.8588C140.141 17.2138 139.941 17.5828 139.597 17.6824C139.254 17.782 138.897 17.5747 138.801 17.2196L137.887 13.8457C138.297 13.7191 138.713 13.6055 139.136 13.5054Z" fill="#FD9909"/>
<path d="M138.762 39.6129C140.447 40.9147 142.369 41.4932 144.56 41.4059C147.169 41.2371 148.401 40.1942 148.341 38.2727C148.245 36.7085 147.318 35.8104 145.558 35.5786C144.736 35.504 143.859 35.4324 142.896 35.3358C141.165 35.132 139.805 34.5235 138.843 33.5385C137.852 32.5254 137.324 31.2507 137.231 29.716C137.12 27.8861 137.591 26.3804 138.702 25.1959C139.757 24.0144 141.322 23.3683 143.37 23.2294C145.872 23.1551 148.078 23.7777 149.987 25.0675L148.463 27.7842C146.912 26.8305 145.222 26.3581 143.423 26.4245C142.497 26.4739 141.726 26.752 141.138 27.2867C140.523 27.8229 140.233 28.6082 140.266 29.6132C140.304 30.233 140.561 30.7523 141.04 31.2301C141.52 31.7079 142.27 31.9936 143.265 32.1477C143.804 32.2078 144.569 32.2854 145.53 32.3526C147.427 32.5178 148.846 33.1528 149.814 34.2559C150.753 35.331 151.281 36.6057 151.372 38.111C151.532 42.1294 149.298 44.2918 144.726 44.5949C141.779 44.7522 139.165 43.9145 136.915 42.1099L138.762 39.6129Z" fill="#FD9909"/>
<path fill-rule="evenodd" clip-rule="evenodd" d="M142.283 20.6635L141.833 46.967L143.387 47.0256L143.837 20.7221L142.283 20.6635Z" fill="#FD9909"/>
<path fill-rule="evenodd" clip-rule="evenodd" d="M144.96 20.7449L144.51 47.0484L146.064 47.107L146.514 20.8035L144.96 20.7449Z" fill="#FD9909"/>
</svg>
