<svg width="268" height="58" viewBox="0 0 268 58" fill="none" xmlns="http://www.w3.org/2000/svg">
<path d="M31.9832 16.5437V44.6237H25.1432V27.7837L18.8632 44.6237H13.3432L7.02322 27.7437V44.6237H0.183217V16.5437H8.26322L16.1432 35.9837L23.9432 16.5437H31.9832ZM84.4082 22.0637C87.0216 22.0637 89.1016 22.917 90.6482 24.6237C92.2216 26.3037 93.0082 28.6237 93.0082 31.5837V44.6237H86.2082V32.5037C86.2082 31.0103 85.8216 29.8503 85.0482 29.0237C84.2749 28.197 83.2349 27.7837 81.9282 27.7837C80.6216 27.7837 79.5816 28.197 78.8082 29.0237C78.0349 29.8503 77.6482 31.0103 77.6482 32.5037V44.6237H70.8082V22.3037H77.6482V25.2637C78.3416 24.277 79.2749 23.5037 80.4482 22.9437C81.6216 22.357 82.9416 22.0637 84.4082 22.0637ZM118.801 33.1037C118.801 33.7437 118.761 34.4103 118.681 35.1037H103.201C103.308 36.4903 103.748 37.557 104.521 38.3037C105.321 39.0237 106.295 39.3837 107.441 39.3837C109.148 39.3837 110.335 38.6637 111.001 37.2237H118.281C117.908 38.6903 117.228 40.0103 116.241 41.1837C115.281 42.357 114.068 43.277 112.601 43.9437C111.135 44.6103 109.495 44.9437 107.681 44.9437C105.495 44.9437 103.548 44.477 101.841 43.5437C100.135 42.6103 98.8013 41.277 97.8413 39.5437C96.8813 37.8103 96.4013 35.7837 96.4013 33.4637C96.4013 31.1437 96.868 29.117 97.8013 27.3837C98.7613 25.6503 100.095 24.317 101.801 23.3837C103.508 22.4503 105.468 21.9837 107.681 21.9837C109.841 21.9837 111.761 22.437 113.441 23.3437C115.121 24.2503 116.428 25.5437 117.361 27.2237C118.321 28.9037 118.801 30.8637 118.801 33.1037ZM111.801 31.3037C111.801 30.1303 111.401 29.197 110.601 28.5037C109.801 27.8103 108.801 27.4637 107.601 27.4637C106.455 27.4637 105.481 27.797 104.681 28.4637C103.908 29.1303 103.428 30.077 103.241 31.3037H111.801ZM145.21 22.3037L131.21 55.2237H123.85L128.97 43.8637L119.89 22.3037H127.53L132.69 36.2637L137.81 22.3037H145.21ZM167.883 16.5437V22.0237H160.443V44.6237H153.603V22.0237H146.163V16.5437H167.883ZM178.156 26.0237C178.956 24.797 179.956 23.837 181.156 23.1437C182.356 22.4237 183.689 22.0637 185.156 22.0637V29.3037H183.276C181.569 29.3037 180.289 29.677 179.436 30.4237C178.583 31.1437 178.156 32.4237 178.156 34.2637V44.6237H171.316V22.3037H178.156V26.0237ZM187.065 33.4237C187.065 31.1303 187.492 29.117 188.345 27.3837C189.225 25.6503 190.412 24.317 191.905 23.3837C193.399 22.4503 195.065 21.9837 196.905 21.9837C198.479 21.9837 199.852 22.3037 201.025 22.9437C202.225 23.5837 203.145 24.4237 203.785 25.4637V22.3037H210.625V44.6237H203.785V41.4637C203.119 42.5037 202.185 43.3437 200.985 43.9837C199.812 44.6237 198.439 44.9437 196.865 44.9437C195.052 44.9437 193.399 44.477 191.905 43.5437C190.412 42.5837 189.225 41.237 188.345 39.5037C187.492 37.7437 187.065 35.717 187.065 33.4237ZM203.785 33.4637C203.785 31.757 203.305 30.4103 202.345 29.4237C201.412 28.437 200.265 27.9437 198.905 27.9437C197.545 27.9437 196.385 28.437 195.425 29.4237C194.492 30.3837 194.025 31.717 194.025 33.4237C194.025 35.1303 194.492 36.4903 195.425 37.5037C196.385 38.4903 197.545 38.9837 198.905 38.9837C200.265 38.9837 201.412 38.4903 202.345 37.5037C203.305 36.517 203.785 35.1703 203.785 33.4637ZM214.214 33.4637C214.214 31.1437 214.681 29.117 215.614 27.3837C216.574 25.6503 217.894 24.317 219.574 23.3837C221.281 22.4503 223.227 21.9837 225.414 21.9837C228.214 21.9837 230.547 22.717 232.414 24.1837C234.307 25.6503 235.547 27.717 236.134 30.3837H228.854C228.241 28.677 227.054 27.8237 225.294 27.8237C224.041 27.8237 223.041 28.317 222.294 29.3037C221.547 30.2637 221.174 31.6503 221.174 33.4637C221.174 35.277 221.547 36.677 222.294 37.6637C223.041 38.6237 224.041 39.1037 225.294 39.1037C227.054 39.1037 228.241 38.2503 228.854 36.5437H236.134C235.547 39.157 234.307 41.2103 232.414 42.7037C230.521 44.197 228.187 44.9437 225.414 44.9437C223.227 44.9437 221.281 44.477 219.574 43.5437C217.894 42.6103 216.574 41.277 215.614 39.5437C214.681 37.8103 214.214 35.7837 214.214 33.4637ZM253.433 44.6237L246.633 35.2637V44.6237H239.793V15.0237H246.633V31.3837L253.393 22.3037H261.833L252.553 33.5037L261.913 44.6237H253.433Z" fill="black"/>
<path d="M59.1797 36.9855C59.1797 42.2082 55.2054 46.442 50.3028 46.442C45.4001 46.442 41.4258 42.2082 41.4258 36.9855M59.1797 36.9855C59.1797 31.7628 55.2054 27.529 50.3028 27.529C45.4001 27.529 41.4258 31.7628 41.4258 36.9855M59.1797 36.9855C59.1797 43.9491 53.8806 49.5942 47.3438 49.5942C40.807 49.5942 35.5078 43.9491 35.5078 36.9855M41.4258 36.9855C41.4258 30.0219 46.7249 24.3768 53.2618 24.3768C59.7986 24.3768 65.0977 30.0219 65.0977 36.9855" stroke="#52A2FF" stroke-width="5" stroke-linecap="round" stroke-linejoin="round"/>
</svg>
